# xmcd CD database file
#
# Track frame offsets:
#	150
#	24268
#	52291
#	73513
#	81125
#	108299
#	130427
#	157782
#
# Disc length: 2310 seconds
#
# Revision: 0
# Processed by: cddbd v1.5.1PL0 Copyright (c) Steve Scherf et al.
# Submitted via: CDex 1.51
#
DISCID=61090408
DTITLE=Llewellyn and Juliana - Members Exclusive Songs
DYEAR=2004
DGENRE=New Age
TTITLE0=Cone of Power
TTITLE1=Mary Celeste (The Ghost Ship)
TTITLE2=GHOST new mix
TTITLE3=Watch my Footsteps
TTITLE4=Time
TTITLE5=Guardian Angel
TTITLE6=Silver Wheel
TTITLE7=Without You
EXTD=YEAR: 2004
EXTT0=
EXTT1=
EXTT2=
EXTT3=
EXTT4=
EXTT5=
EXTT6=
EXTT7=
PLAYORDER=
